 solid PRO2STL version 1.0
 facet normal -1 0 0
 outer loop 
 vertex 0 2 2
 vertex 0 2 0
 vertex 0 0 0
 endloop
 endfacet
 facet normal -1 0 0
 outer loop 
 vertex 0 0 0
 vertex 0 0 2
 vertex 0 2 2
 endloop
 endfacet
 facet normal 0 1 -0
 outer loop 
 vertex 2 2 2
 vertex 2 2 0
 vertex 0 2 0
 endloop
 endfacet
 facet normal -0 1 0
 outer loop 
 vertex 0 2 0
 vertex 0 2 2
 vertex 2 2 2
 endloop
 endfacet
 facet normal 1 0 0
 outer loop 
 vertex 2 0 2
 vertex 2 0 0
 vertex 2 2 0
 endloop
 endfacet
 facet normal 1 0 0
 outer loop 
 vertex 2 2 0
 vertex 2 2 2
 vertex 2 0 2
 endloop
 endfacet
 facet normal 0 -1 0
 outer loop 
 vertex 0 0 2
 vertex 0 0 0
 vertex 2 0 0
 endloop
 endfacet
 facet normal -0 -1 -0
 outer loop 
 vertex 2 0 0
 vertex 2 0 2
 vertex 0 0 2
 endloop
 endfacet
 facet normal -0 0 1
 outer loop 
 vertex 2 2 2
 vertex 0 2 2
 vertex 0 0 2
 endloop
 endfacet
 facet normal 0 -0 1
 outer loop 
 vertex 0 0 2
 vertex 2 0 2
 vertex 2 2 2
 endloop
 endfacet
 facet normal 0 0 -1
 outer loop 
 vertex 2 0 0
 vertex 0 0 0
 vertex 0 2 0
 endloop
 endfacet
 facet normal -0 -0 -1
 outer loop 
 vertex 0 2 0
 vertex 2 2 0
 vertex 2 0 0
 endloop
 endfacet
endsolid PRO2STL version 1.0
